<?xml version="1.0" standalone="no"?>
<!DOCTYPE svg PUBLIC "-//W3C//DTD SVG 1.1//EN"
  "http://www.w3.org/Graphics/SVG/1.1/DTD/svg11.dtd">
<svg version="1.1" xmlns="http://www.w3.org/2000/svg" width="1792" height="1063" viewBox="-500 300 930 590" id="ccdiagram"><defs><style type="text/css">@import url(&#x27;https://fonts.googleapis.com/css?family=Open+Sans:400,700|Inconsolata:400&#x27;);</style></defs><g>0<g pointer-events="auto"></g>0<g pointer-events="auto"></g><g></g><g pointer-events="auto"></g><g pointer-events="auto"></g><g pointer-events="none"></g><g pointer-events="auto"><g><g cursor="cell"><line x1="-416" y1="722" x2="-344" y2="646" stroke="red" stroke-width="8" opacity="0"></line><line x1="-416" y1="722" x2="-344" y2="646" stroke="#000000" stroke-width="2" stroke-linecap="round"></line><polygon points="-337 639, -359 648, -346 648, -339 655, -337 639" stroke-linejoin="round" fill="#000000" stroke="#000000" stroke-width="1"></polygon></g></g><g><g cursor="cell"><line x1="-272" y1="601" x2="-234" y2="579" stroke="red" stroke-width="8" opacity="0"></line><line x1="-272" y1="601" x2="-234" y2="579" stroke="#000000" stroke-width="2" stroke-linecap="round"></line><polygon points="-224 574, -250 579, -236 581, -233 588, -224 574" stroke-linejoin="round" fill="#000000" stroke="#000000" stroke-width="1"></polygon></g></g><g><g cursor="cell"><line x1="-144" y1="527" x2="-106" y2="505" stroke="red" stroke-width="8" opacity="0"></line><line x1="-144" y1="527" x2="-106" y2="505" stroke="#000000" stroke-width="2" stroke-linecap="round"></line><polygon points="-96 500, -122 505, -108 507, -105 514, -96 500" stroke-linejoin="round" fill="#000000" stroke="#000000" stroke-width="1"></polygon></g></g><g><g cursor="cell"><line x1="-16" y1="453" x2="-5" y2="380" stroke="red" stroke-width="8" opacity="0"></line><line x1="-16" y1="453" x2="-5" y2="380" stroke="#000000" stroke-width="2" stroke-linecap="round"></line><polygon points="-3 372, -17 386, -5 382, 6 387, -3 372" stroke-linejoin="round" fill="#000000" stroke="#000000" stroke-width="1"></polygon></g></g><g><g cursor="cell"><line x1="-16" y1="453" x2="111" y2="447" stroke="red" stroke-width="8" opacity="0"></line><line x1="-16" y1="453" x2="111" y2="447" stroke="#000000" stroke-width="2" stroke-linecap="round"></line><polygon points="125 446, 99 441, 107 447, 101 454, 125 446" stroke-linejoin="round" fill="#000000" stroke="#000000" stroke-width="1"></polygon></g></g><g><g cursor="cell"><line x1="-480" y1="685" x2="-349" y2="643" stroke="red" stroke-width="8" opacity="0"></line><line x1="-480" y1="685" x2="-349" y2="643" stroke="#000000" stroke-width="2" stroke-linecap="round"></line><polygon points="-337 639, -364 640, -353 644, -353 652, -337 639" stroke-linejoin="round" fill="#000000" stroke="#000000" stroke-width="1"></polygon></g></g></g><g pointer-events="auto"><g opacity="1"><g id="e6419e9a-bb9b-4374-978b-1dc6ec3f8177" transform="translate(0 0)"><svg x="-113" y="388" height="120.799" width="97" viewBox="0 0 25.664585 31.961517"><path d="M.269 5.1v21.761l8.375 4.836V9.937z" fill="#d2d2d4" fill-rule="evenodd"></path><path d="M4.457 2.682v4.836l4.187 2.418h8.376l4.188-2.418V2.682L17.02.265H8.644z" fill="none" stroke="#000" stroke-width=".269"></path><path d="M8.644 9.936h8.376v21.76H8.644z" fill="#d2d2d4" fill-rule="evenodd"></path><path d="M.269 5.1v4.836l8.375 4.836h8.376l8.376-4.836V5.1L17.02.265H8.644z" fill="#ececed" fill-rule="evenodd"></path><path d="M17.02 9.936L25.396 5.1v21.761l-8.376 4.836z" fill="#b8b8bb" fill-rule="evenodd"></path><path d="M8.644 14.772V9.936h8.376v4.836z" fill="none" stroke="#83838a" stroke-width=".269"></path><g fill="none" stroke="#83838a"><path d="M.269 5.1l8.375 4.836h8.376L25.396 5.1M8.644 9.936v21.76M17.02 9.936v21.76" stroke-width=".26865"></path></g><path d="M.269 9.936l4.188-2.418V2.682L.269 5.1z" fill="#ececed" fill-rule="evenodd" stroke="#83838a" stroke-width=".269"></path><path d="M8.644 14.772V9.936L4.457 7.518.269 9.936z" fill="none" stroke="#83838a" stroke-width=".269"></path><path d="M21.208 7.518V2.682L25.396 5.1v4.836" fill="#d3d3d3" fill-rule="evenodd" stroke="#83838a" stroke-width=".269"></path><path d="M25.396 9.936l-4.188-2.418-4.188 2.418v4.836z" fill="#d3d3d3" fill-rule="evenodd" stroke="#83838a" stroke-width=".269"></path><path d="M.269 5.1v21.761l8.375 4.836h8.376l8.376-4.836V5.101L17.02.264H8.644z" fill="none" stroke="#000000" stroke-width=".529"></path><g transform="scale(.29127 .16816) rotate(45 -326.555 -2684.243)"><circle cx="1484" cy="-2012" fill="#4286c5" r="17.6" transform="matrix(1.25 0 0 1.25 0 1488.188)"></circle><path d="M1847.206-1009.63h15.588l-7.794-4.5zM1847.206-1017.135h15.588v-4.5h-15.588zM1847.206-1024.563h15.588v-4.5h-15.588zM1847.206-1031.99h15.588v-4.5h-15.588zM1847.206-1039.418h15.588l-7.794-4.5z" fill="#fff" fill-rule="evenodd"></path></g></svg></g></g><g opacity="1"><g id="3429d419-c6ba-4280-9142-c4c93cbdf8f6" transform="translate(0 0)"><svg x="-240" y="469" height="113.438" width="96" viewBox="0 0 25.400052 30.013873"><g transform="translate(412.599 -86.957)"><path d="M-412.333 102.348v4.786l8.29 4.785h8.289l8.29-4.785v-4.786l-8.29-4.786h-8.29z" fill="#3c3c3c" fill-rule="evenodd"></path><path d="M-395.754 111.92l8.29-4.786v4.785l-8.29 4.786z" fill="#090909" fill-rule="evenodd"></path><path d="M-404.044 111.92h8.29v4.785h-8.29z" fill="#232323" fill-rule="evenodd"></path><path d="M-412.333 107.134v4.785l8.29 4.786v-4.786z" fill="#232323" fill-rule="evenodd"></path><path d="M-412.333 107.134l8.29 4.785h8.289l8.29-4.785M-404.044 111.92v4.785M-395.754 111.92v4.785" fill="none" stroke="#000" stroke-width=".26588"></path><path d="M-412.333 102.348v9.571l8.29 4.786h8.289l8.29-4.786v-9.571l-8.29-4.786h-8.29z" fill="none" stroke="#000000" stroke-width=".53176"></path><path d="M-412.333 97.178v4.786l8.29 4.786h8.289l8.29-4.786v-4.786l-8.29-4.786h-8.29z" fill="#3c3c3c" fill-rule="evenodd"></path><path d="M-395.754 106.75l8.29-4.786v4.786l-8.29 4.786z" fill="#090909" fill-rule="evenodd"></path><path d="M-404.044 106.75h8.29v4.786h-8.29z" fill="#232323" fill-rule="evenodd"></path><path d="M-412.333 101.964v4.786l8.29 4.786v-4.786z" fill="#232323" fill-rule="evenodd"></path><path d="M-412.333 101.964l8.29 4.786h8.289l8.29-4.786M-404.044 106.75v4.786M-395.754 106.75v4.786" fill="none" stroke="#000" stroke-width=".266"></path><path d="M-412.333 97.178v9.572l8.29 4.786h8.289l8.29-4.786v-9.572l-8.29-4.786h-8.29z" fill="none" stroke="#000000" stroke-width=".532"></path><path d="M-412.333 92.01v4.785l8.29 4.786h8.289l8.29-4.786v-4.786l-8.29-4.786h-8.29z" fill="#3c3c3c" fill-rule="evenodd"></path><path d="M-395.754 101.58l8.29-4.785v4.786l-8.29 4.786z" fill="#090909" fill-rule="evenodd"></path><path d="M-404.044 101.58h8.29v4.787h-8.29z" fill="#232323" fill-rule="evenodd"></path><path d="M-412.333 96.795v4.786l8.29 4.786v-4.786z" fill="#232323" fill-rule="evenodd"></path><path d="M-412.333 96.795l8.29 4.786h8.289l8.29-4.786M-404.044 101.58v4.787M-395.754 101.58v4.787" fill="none" stroke="#000" stroke-width=".266"></path><path d="M-412.333 92.01v9.57l8.29 4.787h8.289l8.29-4.786v-9.572l-8.29-4.786h-8.29z" fill="none" stroke="#000000" stroke-width=".532"></path><circle cx="-136.478" cy="325.284" fill="#f4b934" r="5.801" transform="scale(1.22475 .7071) rotate(45)"></circle><g style="line-height:0%" font-family="sans-serif" font-size="3.191" stroke-width=".266"><path style="line-height:1.25;-inkscape-font-specification:&#x27;Droid Serif&#x27;" d="M-399.242 93.57l.48-.601q.222-.275.177-.448-.04-.17-.467-.416l-.507-.293 1.065-.614.937.541q.825.476.92.934.1.46-.417 1.114l-3.452 4.39-1.622-.937 1.654-2.121-3.729.923-1.622-.936z" fill="#fff" font-family="Droid Serif" font-size="9.971"></path></g></g></svg></g></g><g opacity="1"><g id="0bb99846-32f7-421a-a1a5-83c27649ed8f" transform="translate(0 0)"><svg x="-382" y="557" height="108.05" width="123" viewBox="0 0 32.543749 28.588253"><path d="M10.115 6.02v14.218l7.873-4.318V1.474z" fill="#090909" fill-rule="evenodd" stroke="#000" stroke-width=".268"></path><path d="M.265 2.228l9.85 3.791v14.219l-9.85-8.531z" fill="#232323" fill-rule="evenodd" stroke="#000" stroke-width=".265"></path><path d="M10.115 6.02l7.873-4.546L3.548.332.265 2.228z" fill="#3c3c3c" fill-rule="evenodd" stroke="#000" stroke-width=".265"></path><path d="M.265 11.707l9.85 8.53 7.873-4.317V1.474L3.392.271.265 2.076z" fill="none" stroke="#000000" stroke-width=".529"></path><path d="M22.429 3.65L14.22 8.39l14.828 10.397 3.231-1.866z" fill="#3c3c3c" fill-rule="evenodd" stroke="#000" stroke-width=".268"></path><path d="M14.22 8.39V22.61l14.777 5.687.051-9.509z" fill="#232323" fill-rule="evenodd" stroke="#000" stroke-width=".265"></path><path d="M29.048 18.787l3.231-1.866V26.4l-3.282 1.897z" fill="#090909" fill-rule="evenodd" stroke="#000" stroke-width=".265"></path><path d="M22.429 3.65L14.22 8.39V22.61l14.777 5.687 3.282-1.897v-9.478z" fill="none" stroke="#000000" stroke-width=".529"></path><path d="M21.09 20.43q.163.375.048.64t-.44.265q-.326 0-.671-.265-.346-.265-.509-.64-.162-.374-.047-.639t.44-.265q.326 0 .671.265.346.265.509.64zm1.573-1.808q.08.184.022.318-.059.134-.218.134-.16 0-.335-.134-.176-.135-.255-.318-.082-.187-.024-.32.058-.132.22-.132.163 0 .336.132.173.133.254.32zm1.573 3.617q.08.184.021.318-.058.134-.218.134t-.335-.134q-.175-.135-.255-.318-.081-.187-.023-.32.057-.132.22-.132t.335.132q.173.133.255.32zm-1.826-1.487l-.284-.654q-.016-.035-.052-.068-.036-.034-.065-.038l-.513-.084q-.088-.124-.215-.269.03-.17.1-.406.006-.035-.01-.07-.018-.043-.05-.068-.117-.106-.39-.316-.275-.21-.333-.21-.034 0-.054.025l-.215.317q-.143-.067-.284-.11-.2-.38-.309-.547-.058-.085-.129-.085h-.571q-.034 0-.05.027-.016.026-.004.062l.164.54q-.089.036-.182.11l-.5-.315q-.032-.024-.071-.024-.034 0-.053.028-.238.47-.196.565.014.032.05.067.053.05.208.187.155.138.238.216-.003.155.018.29l-.43.084q-.029.004-.038.034-.008.03.008.069l.285.653q.015.036.051.069.036.033.065.037l.513.085q.088.124.215.268-.03.17-.1.407-.005.038.01.07.018.043.052.07.113.107.388.315.275.208.333.209.034 0 .054-.025l.215-.318q.132.064.286.113.2.382.307.544.058.085.129.085h.571q.034 0 .05-.027.016-.026.004-.062l-.164-.54q.089-.035.183-.11l.499.315q.035.024.072.024.033 0 .052-.028.238-.47.196-.565-.014-.032-.05-.067-.062-.057-.212-.19-.15-.135-.23-.213-.004-.169-.022-.29l.431-.08q.028-.007.036-.038.008-.03-.008-.068zm1.147-1.883l-.215-.494q-.025-.057-.505-.11-.079-.095-.172-.183-.017-.4-.056-.488-.006-.014-.023-.024-.483-.251-.49-.251-.024 0-.069.166-.044.166-.055.24-.064-.007-.095-.007t-.09.007q-.075-.074-.264-.24-.188-.166-.213-.166-.006 0-.272.25-.008.011-.002.025.039.088.369.488-.017.088-.012.183-.435.053-.41.11l.215.494q.024.057.505.11.084.102.172.184.017.399.055.487.006.014.023.025l.138.07.234.12q.11.057.117.057.024 0 .07-.164.045-.164.056-.239.064.007.095.007.03 0 .089-.007.266.251.455.396l.021.007q.012 0 .273-.247.008-.01.002-.025-.038-.088-.368-.487.017-.082.012-.184.435-.053.41-.11zm1.572 3.617l-.215-.494q-.024-.057-.505-.11-.078-.095-.172-.184-.017-.399-.055-.487-.006-.014-.023-.025-.484-.25-.49-.25-.025 0-.069.165-.044.166-.055.24-.065-.006-.096-.006-.03 0-.089.007-.075-.075-.264-.24-.189-.166-.213-.166-.006 0-.272.25-.008.01-.002.025.038.088.369.487-.017.088-.013.184-.434.053-.41.11l.215.494q.025.057.505.11.085.102.173.183.016.4.055.488.006.014.023.024l.138.07.233.121q.111.057.117.057.025 0 .07-.165.045-.164.056-.238.065.007.095.007.031 0 .09-.007.265.25.454.396l.022.007q.012 0 .273-.248.008-.01.002-.024-.038-.088-.369-.488.017-.08.013-.183.434-.053.41-.11z" fill="#f4b934"></path></svg></g></g></g><g pointer-events="auto"></g><g pointer-events="auto"><g opacity="1"><g id="327833b4-241b-4962-bc30-1f8120cfddf8" transform="translate(0 0)"><svg x="-416" y="722" overflow="visible"><g transform=" "><svg width="100" height="100" x="-50" y="-50" style="fill:#ffffff"><svg data-name="Layer 1" xmlns="http://www.w3.org/2000/svg" width="100" height="100" viewBox="0 0 100 100"><path d="M58 24.34a3.12 3.12 0 0 1 3.13 3.11L68.27 75a3.12 3.12 0 0 1-3.13 3.11H34.86A3.13 3.13 0 0 1 31.73 75l8.89-47.54a3.13 3.13 0 0 1 3.13-3.11z" fill="#7d7c7c"/><path d="M65.14 21.86A3.12 3.12 0 0 1 68.27 25v47.5a3.12 3.12 0 0 1-3.13 3.11H34.86a3.13 3.13 0 0 1-3.13-3.11V25a3.13 3.13 0 0 1 3.13-3.11z" fill="#d2d3d3"/><path d="M40.87 25.31h18.21a2 2 0 1 1 0 4.06H40.87a2 2 0 1 1 0-4.06zM50 74.2a3.54 3.54 0 1 1 3.56-3.55A3.55 3.55 0 0 1 50 74.2zm14.71-11.34a2 2 0 0 1-2.09 1.86h-25.3a2 2 0 0 1-2.09-1.86V34.58a2 2 0 0 1 2.09-1.86h25.3a2 2 0 0 1 2.09 1.86z" fill="#fff"/></svg></svg></g></svg></g></g><g opacity="1"><g id="3475982c-4ce9-41c2-b045-a9e12f99d199" transform="translate(0 0)"><svg x="-480" y="685" overflow="visible"><g transform=" "><svg width="100" height="100" x="-50" y="-50" style="fill:#ffffff"><svg data-name="Layer 1" xmlns="http://www.w3.org/2000/svg" width="100" height="100" viewBox="0 0 100 100"><path d="M71.68 70.3H54.07a1.7 1.7 0 0 0-1.71 1.7h21a1.69 1.69 0 0 0-1.68-1.7zM54.07 73.68h17.61A1.69 1.69 0 0 0 73.37 72h-21a1.7 1.7 0 0 0 1.7 1.68z" fill="none"/><path d="M73.37 72a1.69 1.69 0 0 1-1.69 1.69H54.07A1.7 1.7 0 0 1 52.36 72H22.2v1.69a4.23 4.23 0 0 0 4.23 4.23h47.12a4.24 4.24 0 0 0 4.25-4.23V72zM75.94 51.88l-2.73 3a1.93 1.93 0 0 1-1.93 1.92H28.66a1.93 1.93 0 0 1-1.92-1.92l-2.3-3h-2.2v3a6.41 6.41 0 0 0 6.42 6.39h42.62a6.42 6.42 0 0 0 6.43-6.39v-3z" fill="#7d7c7c"/><path d="M73.55 63.59a4.22 4.22 0 0 1 4.25 4.21v3.4a4.24 4.24 0 0 1-4.25 4.23H26.44a4.23 4.23 0 0 1-4.24-4.23v-3.39a4.22 4.22 0 0 1 4.23-4.21zm-1.87 7.61a1.69 1.69 0 1 0 0-3.38H54.07a1.69 1.69 0 1 0 0 3.38h17.61M71.28 22.15a6.42 6.42 0 0 1 6.43 6.38v23.86a6.42 6.42 0 0 1-6.43 6.39H28.66a6.41 6.41 0 0 1-6.42-6.39V28.54a6.41 6.41 0 0 1 6.42-6.38zm1.93 30.24V28.54a1.92 1.92 0 0 0-1.93-1.92H28.66a1.92 1.92 0 0 0-1.92 1.92v23.85a1.93 1.93 0 0 0 1.92 1.92h42.62a1.93 1.93 0 0 0 1.93-1.92" fill="#d2d3d3"/></svg></svg></g></svg></g></g><g opacity="1"><g id="d43fe385-4817-491d-a143-8146c6d31cf0" transform="translate(0 0)"><svg x="32" y="352" overflow="visible"><g transform=" "><svg width="100" height="100" x="-50" y="-50" style="fill:#ffffff"><svg data-name="Layer 1" xmlns="http://www.w3.org/2000/svg" width="100" height="100" viewBox="0 0 100 100"><defs><clipPath id="a"><path d="M41.75 33.15l-14.16.46a13.25 13.25 0 0 0-1-5v-2.44c.31.77 13.06 3.23 13.06 3.23z" fill="#876929"/></clipPath></defs><g><path fill="#876929" d="M12.95 64.03h81.89V78H12.95zM12.95 47.95h81.89v12.71H12.95zM94.84 41.19v2.49H22.9v-2.49l41.43-13.57 30.51 13.57z"/><g><path d="M41.75 33.15l-14.16.46a13.25 13.25 0 0 0-1-5v-2.44c.31.77 13.06 3.23 13.06 3.23z" fill="#876929"/><g clip-path="url(#a)"><path d="M27.59 31.12v2.49a13.25 13.25 0 0 0-1-5v-2.44a13.22 13.22 0 0 1 1 4.95" fill="#876929"/></g></g><path d="M94.84 26.17v15H22.9a13.16 13.16 0 0 0 3.72-15zM12.95 45.64h81.89v12.53H12.95zM12.95 63h81.89v12.52H12.95z" fill="#d9a741"/><g fill="#fff"><path d="M49.18 28.36V30h-3.66v2.4H49v1.68h-3.48v2.74h3.81v1.68h-5.88V28.36zM50.3 30.86h1.9v.79a2.2 2.2 0 0 1 2-1 1.69 1.69 0 0 1 1.8 1.24 1.92 1.92 0 0 1 2-1.22c1.31 0 1.92.81 1.92 2.29v5.58h-2v-5.37c0-.64-.22-1-.78-1s-1 .43-1 1.31v5h-2v-5.31c0-.64-.21-1-.78-1s-1 .43-1 1.31v5h-2zM61.18 33.21V33c0-1.77 1.22-2.37 2.71-2.37 2.35 0 2.8 1 2.8 2.35v4a3.07 3.07 0 0 0 .24 1.48H65a3.17 3.17 0 0 1-.25-.8 1.91 1.91 0 0 1-2 1c-1.37 0-1.86-1.17-1.86-2.2 0-1.44.59-2 1.95-2.4l1.12-.3c.59-.16.79-.38.79-.9a.82.82 0 0 0-.92-.94A.88.88 0 0 0 63 33v.21zm3.62 1.49a2.55 2.55 0 0 1-.85.39c-.8.17-1.12.55-1.12 1.24s.21 1.07.75 1.07a1.17 1.17 0 0 0 1.22-1.18zM68.18 28.24h2v1.68h-2zm0 2.62h2v7.67h-2zM71.62 28.36h2v10.17h-2z"/></g><path d="M23.63 33.7a9.23 9.23 0 0 1-18.46 0v-2.48l9.23-6.75 9.23 6.75z" fill="#8d090a"/><circle cx="14.39" cy="31.22" r="9.23" fill="#ea2227"/><path fill="#fff" d="M15.61 48.29h76.57v7.24H15.61zM15.61 65.64h76.57v7.24H15.61z"/></g></svg></svg></g></svg></g></g><g opacity="1"><g id="d1f2c909-8c7c-4baa-b986-7c318dddca23" transform="translate(0 0)"><svg x="160" y="426" overflow="visible"><g transform=" "><svg width="100" height="100" x="-50" y="-50" style="fill:#ffffff"><svg data-name="Layer 1" xmlns="http://www.w3.org/2000/svg" width="100" height="100" viewBox="0 0 100 100"><path d="M58 24.34a3.12 3.12 0 0 1 3.13 3.11L68.27 75a3.12 3.12 0 0 1-3.13 3.11H34.86A3.13 3.13 0 0 1 31.73 75l8.89-47.54a3.13 3.13 0 0 1 3.13-3.11z" fill="#7d7c7c"/><path d="M65.14 21.86A3.12 3.12 0 0 1 68.27 25v47.5a3.12 3.12 0 0 1-3.13 3.11H34.86a3.13 3.13 0 0 1-3.13-3.11V25a3.13 3.13 0 0 1 3.13-3.11z" fill="#d2d3d3"/><path d="M40.87 25.31h18.21a2 2 0 1 1 0 4.06H40.87a2 2 0 1 1 0-4.06zM50 74.2a3.54 3.54 0 1 1 3.56-3.55A3.55 3.55 0 0 1 50 74.2zm14.71-11.34a2 2 0 0 1-2.09 1.86h-25.3a2 2 0 0 1-2.09-1.86V34.58a2 2 0 0 1 2.09-1.86h25.3a2 2 0 0 1 2.09 1.86z" fill="#fff"/></svg></svg></g></svg></g></g></g><g pointer-events="auto"><g opacity="1"><g id="c93f8bc3-38a4-4d9a-98df-b19b3767aa72" transform="translate(0 0)"><svg x="-304" y="675" overflow="visible"><text stroke="#ffffff" stroke-width="4" font-family="Open Sans" y="36.5" font-size="25pt" fill="#4286c5" font-weight="bold" transform="matrix(0.707 0.409 -0.707 0.409 0 0)" xml:space="preserve"><tspan x="8" dy="0">1. Clients submit </tspan><tspan x="8" dy="1.1em">form to API Gateway</tspan></text><text font-family="Open Sans" y="36.5" font-size="25pt" fill="#4286c5" font-weight="bold" transform="matrix(0.707 0.409 -0.707 0.409 0 0)" xml:space="preserve"><tspan x="8" dy="0">1. Clients submit </tspan><tspan x="8" dy="1.1em">form to API Gateway</tspan></text></svg></g></g><g opacity="1"><g id="272b94a2-8032-467f-974c-0b7e80373c97" transform="translate(0 0)"><svg x="-192" y="611" overflow="visible"><text stroke="#ffffff" stroke-width="4" font-family="Open Sans" y="36.5" font-size="25pt" fill="#4286c5" font-weight="bold" transform="matrix(0.707 0.409 -0.707 0.409 0 0)" xml:space="preserve"><tspan x="8" dy="0">2. API Gateway forwards</tspan><tspan x="8" dy="1.1em">event to Lambda</tspan></text><text font-family="Open Sans" y="36.5" font-size="25pt" fill="#4286c5" font-weight="bold" transform="matrix(0.707 0.409 -0.707 0.409 0 0)" xml:space="preserve"><tspan x="8" dy="0">2. API Gateway forwards</tspan><tspan x="8" dy="1.1em">event to Lambda</tspan></text></svg></g></g><g opacity="1"><g id="e2ddebf5-2ff7-463a-96c1-5bcd5bcf29e9" transform="translate(0 0)"><svg x="-64" y="537" overflow="visible"><text stroke="#ffffff" stroke-width="4" font-family="Open Sans" y="36.5" font-size="25pt" fill="#4286c5" font-weight="bold" transform="matrix(0.707 0.409 -0.707 0.409 0 0)" xml:space="preserve"><tspan x="8" dy="0">3. Lambda sends </tspan><tspan x="8" dy="1.1em">message to SNS</tspan></text><text font-family="Open Sans" y="36.5" font-size="25pt" fill="#4286c5" font-weight="bold" transform="matrix(0.707 0.409 -0.707 0.409 0 0)" xml:space="preserve"><tspan x="8" dy="0">3. Lambda sends </tspan><tspan x="8" dy="1.1em">message to SNS</tspan></text></svg></g></g><g opacity="1"><g id="1273e0d9-52b6-4127-b750-1cc712021188" transform="translate(0 0)"><svg x="80" y="453" overflow="visible"><text stroke="#ffffff" stroke-width="4" font-family="Open Sans" y="36.5" font-size="25pt" fill="#4286c5" font-weight="bold" transform="matrix(0.707 0.409 -0.707 0.409 0 0)" xml:space="preserve"><tspan x="8" dy="0">4. SNS distributes message</tspan><tspan x="8" dy="1.1em">though email and SMS</tspan></text><text font-family="Open Sans" y="36.5" font-size="25pt" fill="#4286c5" font-weight="bold" transform="matrix(0.707 0.409 -0.707 0.409 0 0)" xml:space="preserve"><tspan x="8" dy="0">4. SNS distributes message</tspan><tspan x="8" dy="1.1em">though email and SMS</tspan></text></svg></g></g></g><g></g></g></svg>
